<?xml version="1.0" encoding="UTF-8"?>
<svg width="32px" height="22px" viewBox="0 0 32 22" version="1.1" xmlns="http://www.w3.org/2000/svg" xmlns:xlink="http://www.w3.org/1999/xlink">
    <!-- Generator: Sketch 58 (84663) - https://sketch.com -->
    <title>icon/s/preview</title>
    <desc>Created with Sketch.</desc>
    <g id="hi-fi" stroke="none" stroke-width="1" fill="none" fill-rule="evenodd">
        <g id="homepage/active" transform="translate(-712.000000, -521.000000)" fill="#000000">
            <g id="Listing-card-2" transform="translate(24.000000, 464.000000)">
                <g id="icon/size/s" transform="translate(688.000000, 51.000000)">
                    <g id="icon/preview/inactive">
                        <g id="preview-eye" transform="translate(0.000000, 6.000000)">
                            <path d="M16,21.3333333 C7.28970804,21.3333333 0.43761169,11.590266 0.163105519,11.1918506 C-0.0543685062,10.8774969 -0.0543685062,10.4558364 0.163105519,10.1414827 C0.451688929,9.72495756 7.30026596,0 16,0 C24.699734,0 31.5623883,9.74306735 31.8368945,10.1414827 C32.0543685,10.4558364 32.0543685,10.8774969 31.8368945,11.1918506 C31.5623883,11.590266 24.710292,21.3333333 16,21.3333333 Z M1.97555011,10.6485569 C3.49941129,12.629768 9.28867605,19.5223543 16,19.5223543 C22.711324,19.5223543 28.5005887,12.6406338 30.0244499,10.6485569 C28.5005887,8.66734578 22.711324,1.77475948 16,1.77475948 C9.28867605,1.77475948 3.49941129,8.66734578 1.97555011,10.6485569 Z M16,16.4436899 C12.8901421,16.4436899 10.3691042,13.8491205 10.3691042,10.6485569 C10.3691042,7.4479933 12.8901421,4.85342388 16,4.85342388 C19.1098579,4.85342388 21.6308958,7.4479933 21.6308958,10.6485569 C21.6308958,12.1855217 21.0376424,13.6595365 19.9816446,14.7463347 C18.9256468,15.833133 17.4934064,16.4436899 16,16.4436899 Z M16,6.66440294 C13.8619727,6.66440294 12.1287591,8.44816942 12.1287591,10.6485569 C12.1287591,12.8489443 13.8619727,14.6327108 16,14.6327108 C18.1380273,14.6327108 19.8712409,12.8489443 19.8712409,10.6485569 C19.8712409,8.44816942 18.1380273,6.66440294 16,6.66440294 L16,6.66440294 Z" id="Shape" fill-rule="nonzero"></path>
                        </g>
                    </g>
                </g>
            </g>
        </g>
    </g>
</svg>