<?xml version="1.0" encoding="UTF-8"?>
<svg width="28px" height="26px" viewBox="0 0 28 26" version="1.1" xmlns="http://www.w3.org/2000/svg" xmlns:xlink="http://www.w3.org/1999/xlink">
    <!-- Generator: Sketch 58 (84663) - https://sketch.com -->
    <title>icon/size/s</title>
    <desc>Created with Sketch.</desc>
    <g id="hi-fi" stroke="none" stroke-width="1" fill="none" fill-rule="evenodd">
        <g id="Desktop-HD" transform="translate(-715.000000, -220.000000)" stroke="#000000">
            <g id="Listing-card-1" transform="translate(24.000000, 200.000000)">
                <g id="icon/like/inactive" transform="translate(688.000000, 16.000000)">
                    <g id="like_icon" transform="translate(4.000000, 4.571429)">
                        <path d="M5.64509484,0.158350083 C8.48998433,-0.428237797 10.8582431,0.610860734 12.6456082,3.34268429 C12.9583971,3.8119546 13.0477654,3.8119546 13.3456596,3.34268429 C15.7139184,-0.394718489 20.1972259,-1.09862395 23.3251148,1.75051719 C26.6615297,4.81753382 26.9296345,10.7672109 23.8315349,14.1526609 C22.6250635,15.4766736 21.3292238,16.666609 20.0780682,17.923583 C17.8736512,20.102338 15.6692342,22.2475737 13.4648172,24.4263287 C12.4966611,25.3816289 12.5115558,25.3983886 11.5880839,24.3760497 C8.68361555,21.2084752 5.77914722,18.0073813 2.84488948,14.8733261 C1.7575757,13.7169099 0.863893142,12.4766956 0.372367734,10.8342495 C0.119157675,9.97950717 0.044684128,9.09124552 0,8.37058041 C0.0148947093,4.26446525 2.36825879,0.828736232 5.64509484,0.158350083 Z" id="Path" stroke-width="0.5"></path>
                    </g>
                </g>
            </g>
        </g>
    </g>
</svg>