<?xml version="1.0" encoding="UTF-8"?>
<svg width="11px" height="10px" viewBox="0 0 11 10" version="1.1" xmlns="http://www.w3.org/2000/svg" xmlns:xlink="http://www.w3.org/1999/xlink">
    <!-- Generator: Sketch 58 (84663) - https://sketch.com -->
    <title>icon/xxs/star</title>
    <desc>Created with Sketch.</desc>
    <g id="Typeface" stroke="none" stroke-width="1" fill="none" fill-rule="evenodd">
        <g id="homepage/active" transform="translate(-309.000000, -673.000000)" fill="#00A799">
            <g id="Listing-card-2" transform="translate(24.000000, 464.000000)">
                <g id="rating" transform="translate(285.000000, 209.000000)">
                    <g id="icon/Rating" transform="translate(-0.000000, 0.000000)">
                        <g id="Ratings">
                            <path d="M8.57509923,10 C8.41530872,10 8.24767802,9.93997087 8.06436694,9.815295 L5.92511543,8.3817 C5.71156362,8.23926402 5.28856676,8.23890882 5.07650833,8.38134479 L2.93501676,9.8160054 C2.5560743,10.0706852 2.19393225,10.0461763 2.0065144,9.80428374 C1.8803247,9.64160125 1.86277761,9.41746883 1.95424648,9.13828011 L2.72706509,6.75913757 C2.80733369,6.51227223 2.68114398,6.14605903 2.46385875,5.99119099 L0.36828829,4.49721166 C-0.042388265,4.20417007 -0.0233478065,3.92569176 0.0248133531,3.78467659 C0.0729745128,3.64437183 0.230151631,3.40780734 0.74275064,3.4007033 L3.36137369,3.3648279 C3.63354025,3.36056548 3.96096146,3.13430185 4.05019028,2.88885732 L4.89394393,0.531737293 C5.06008126,0.0689091749 5.34456811,0 5.49987852,0 C5.65444224,0 5.93967578,0.0689091749 6.10506643,0.531382091 L6.95180681,2.88885732 C7.03916892,3.13394665 7.36659013,3.36056548 7.63875669,3.3648279 L10.2558864,3.4007033 C10.7692321,3.40816254 10.9267825,3.64401662 10.9749437,3.78396618 C11.0231048,3.92391575 11.0432653,4.20239406 10.6337088,4.49650126 L8.53515161,5.99119099 C8.31861306,6.14641424 8.19317004,6.51227223 8.27381198,6.75878237 L9.04551056,9.13934572 C9.13660609,9.41853444 9.11831231,9.64266686 8.99212261,9.80499414 C8.89430692,9.92860441 8.74272994,10 8.57509923,10 Z" id="Shape-Copy-2" fill-rule="nonzero"></path>
                        </g>
                    </g>
                </g>
            </g>
        </g>
    </g>
</svg>